<svg xmlns="http://www.w3.org/2000/svg" viewBox="0 0 200 40" role="img" aria-labelledby="title desc">
  <title id="title">KrishiSetu</title>
  <desc id="desc">Agriculture technology  leaf and network mark with wordmark</desc>
  <defs>
    <linearGradient id="ksLeaf" x1="0%" y1="0%" x2="100%" y2="100%">
      <stop offset="0%" stop-color="#66bb6a"/>
      <stop offset="100%" stop-color="#2e7d32"/>
    </linearGradient>
  </defs>
  <!-- Tech nodes / circuit -->
  <g fill="none" stroke="#81c784" stroke-width="1.2" stroke-linecap="round">
    <path d="M4 20h5M15 20h5"/>
    <path d="M12 13v5M12 22v5"/>
  </g>
  <circle cx="12" cy="20" r="2.8" fill="#2e7d32"/>
  <circle cx="4" cy="20" r="1.5" fill="#43a047"/>
  <circle cx="20" cy="20" r="1.5" fill="#43a047"/>
  <!-- Leaf -->
  <path fill="url(#ksLeaf)" d="M24 8c8 4 12 14 8 22-2 4-6 6-10 6s-8-2-10-6c-4-8 0-18 8-22 .5 6 2 10 4 12 2-2 3.5-6 4-12z"/>
  <path fill="none" stroke="#1b5e20" stroke-width="0.6" opacity="0.35" d="M22 18c2 4 2 8 0 12"/>
  <!-- Wordmark -->
  <text x="38" y="26" font-family="Segoe UI, system-ui, -apple-system, BlinkMacSystemFont, sans-serif" font-size="15" font-weight="700" fill="#1b5e20">Krishi</text>
  <text x="92" y="26" font-family="Segoe UI, system-ui, -apple-system, BlinkMacSystemFont, sans-serif" font-size="15" font-weight="700" fill="#2e7d32">Setu</text>
</svg>
